<?xml version="1.0" encoding="utf-8"?>
<!-- Generator: Adobe Illustrator 23.0.1, SVG Export Plug-In . SVG Version: 6.00 Build 0)  -->
<svg version="1.1" id="レイヤー_1" xmlns="http://www.w3.org/2000/svg" xmlns:xlink="http://www.w3.org/1999/xlink" x="0px"
	 y="0px" viewBox="0 0 776.4 377.7" style="enable-background:new 0 0 776.4 377.7;" xml:space="preserve">
<style type="text/css">
	.st0{fill:#FFFFFF;}
	.st1{fill:#7F7F7F;}
</style>
<path class="st0" d="M303.2,0h48v48h-48V0z M303.2,60h48v48h-48V60z M303.2,120h48v48h-48V120z M364.2,0h48v48h-48V0z M425.2,0h48
	v48h-48V0z"/>
<path class="st1" d="M364.2,60h48v48h-48V60z"/>
<g>
	<path class="st0" d="M24.5,339.2c-5.1-2.7-8.9-6.7-11.6-11.8c-2.6-5.2-4-11.4-4-18.7v-59.4h17.5v59.8c0,5.3,1.4,9.5,4.3,12.4
		s6.9,4.4,12.1,4.4s9.3-1.5,12.2-4.4s4.3-7.1,4.3-12.4v-59.8h17.5v59.4c0,7.3-1.3,13.5-4,18.7s-6.5,9.1-11.6,11.8
		c-5.1,2.7-11.2,4.1-18.4,4.1S29.6,341.9,24.5,339.2z M109.2,249.3h21.4l34.6,71.3l-1.5,1.7v-72.9h16.8v92.9h-21.6L124.4,272
		l1.5-1.7v71.8h-16.8L109.2,249.3L109.2,249.3z M214,249.3h17.5v93H214V249.3L214,249.3z M222.8,325.4h22.3c5.8,0,10.2-1.4,13.4-4.2
		c3.2-2.8,4.7-6.7,4.7-11.8V282c0-5.1-1.6-9-4.7-11.8c-3.2-2.8-7.6-4.2-13.4-4.2h-22.3v-16.9h21.9c7.8,0,14.4,1.3,19.9,3.9
		c5.5,2.6,9.6,6.4,12.5,11.4s4.3,11,4.3,18V309c0,6.7-1.4,12.5-4.1,17.5c-2.8,5-6.9,8.9-12.4,11.6c-5.5,2.8-12.2,4.2-20.2,4.2h-21.9
		V325.4L222.8,325.4z M313.1,249.3h17.5v93h-17.5V249.3L313.1,249.3z M319.4,249.3h56v16.9h-56V249.3L319.4,249.3z M319.4,287.7
		h48.9v16.9h-48.9V287.7z M319.4,325.4h56v16.9h-56V325.4z M404.5,249.2H422v93.1h-17.5V249.2L404.5,249.2z M411.4,288h32.4
		c1.8,0,3.4-0.4,4.7-1.3c1.4-0.9,2.4-2.2,3.2-3.8c0.7-1.7,1.1-3.6,1.2-5.8c0-2.2-0.4-4.1-1.1-5.8s-1.8-2.9-3.2-3.8
		c-1.4-0.9-3-1.3-4.8-1.3h-32.4v-16.9h33.8c5.1,0,9.6,1.2,13.5,3.5s6.9,5.6,9,9.8c2.1,4.2,3.2,9.1,3.2,14.6s-1.1,10.4-3.2,14.6
		s-5.1,7.5-9.1,9.8c-3.9,2.3-8.4,3.5-13.5,3.5h-33.8L411.4,288L411.4,288z M431,302l18.7-2.9l25.1,43.2h-21.2L431,302z M503,249.3
		h17.5v93H503V249.3L503,249.3z M510.8,325.4h54.5v16.9h-54.5V325.4z M605.4,339c-5.1-2.8-9.1-6.8-11.9-12c-2.8-5.2-4.2-11.2-4.2-18
		v-26.4c0-6.8,1.4-12.8,4.2-18s6.8-9.2,11.9-12c5.1-2.8,11.1-4.3,17.8-4.3s12.7,1.4,17.8,4.3c5.1,2.8,9.1,6.8,11.9,12
		c2.8,5.2,4.2,11.2,4.2,18V309c0,6.8-1.4,12.8-4.2,18s-6.8,9.2-11.9,12c-5.1,2.8-11.1,4.3-17.8,4.3
		C616.5,343.2,610.5,341.8,605.4,339z M631.5,323.7c2.4-1.3,4.2-3.3,5.5-5.7c1.3-2.5,2-5.3,2-8.6v-27.2c0-3.2-0.7-6.1-2-8.6
		s-3.1-4.4-5.5-5.7c-2.4-1.3-5.2-2-8.3-2c-3.2,0-5.9,0.7-8.3,2c-2.4,1.3-4.2,3.3-5.5,5.7c-1.3,2.5-2,5.3-2,8.6v27.2
		c0,3.2,0.6,6.1,2,8.6c1.3,2.5,3.1,4.4,5.5,5.7c2.4,1.3,5.2,2,8.3,2C626.4,325.7,629.1,325,631.5,323.7z M755,290.3v18.2
		c0,6.9-1.4,13-4.2,18.3s-6.7,9.3-11.9,12.2c-5.1,2.9-11,4.3-17.8,4.3s-12.8-1.4-17.9-4.1c-5.2-2.7-9.2-6.5-12-11.5
		c-2.8-4.9-4.3-10.7-4.3-17.2V283c0-6.9,1.4-13,4.2-18.2s6.7-9.3,11.9-12.2c5.1-2.9,11-4.3,17.8-4.3c5.5,0,10.7,1.1,15.4,3.4
		c4.7,2.3,8.6,5.5,11.7,9.7c3.1,4.2,5.3,9,6.4,14.5h-18.9c-0.6-2-1.7-3.7-3.2-5.1s-3.2-2.5-5.2-3.3c-2-0.7-4-1.1-6.2-1.1
		c-3.1,0-5.9,0.7-8.2,2c-2.4,1.4-4.2,3.3-5.5,5.8s-2,5.4-2,8.7v27.4c0,2.9,0.7,5.5,2,7.7s3.2,3.9,5.6,5.1c2.4,1.2,5.2,1.8,8.4,1.8
		s5.9-0.6,8.3-2c2.4-1.3,4.2-3.2,5.5-5.7s1.9-5.4,1.9-8.8v-1.5h-14.1V290H755V290.3z"/>
</g>
</svg>
